<svg width="111" height="90" viewBox="0 0 111 90" fill="none" xmlns="http://www.w3.org/2000/svg">
<path fill-rule="evenodd" clip-rule="evenodd" d="M66.5 89C91.0767 89 111 69.0767 111 44.5C111 19.9233 91.0767 0 66.5 0C41.9233 0 22 19.9233 22 44.5C22 69.0767 41.9233 89 66.5 89ZM66.5 85C88.8675 85 107 66.8675 107 44.5C107 22.1325 88.8675 4 66.5 4C44.1325 4 26 22.1325 26 44.5C26 66.8675 44.1325 85 66.5 85Z" fill="#C4C4C4"/>
<g clip-path="url(#clip0_9_431)">
<path d="M78.4156 54.7805L78.4328 54.2473L77.8996 54.2645L76.2774 54.3171L76.0798 54.3235L75.94 54.4633L69.7367 60.6666L63.5334 54.4633L63.3936 54.3235L63.196 54.3171L61.5738 54.2646L61.0406 54.2473L61.0579 54.7805L61.1104 56.4027L61.1168 56.6003L61.2566 56.7401L67.4599 62.9434L61.2566 69.1467L61.1168 69.2865L61.1104 69.4841L61.0579 71.1063L61.0406 71.6395L61.5738 71.6222L63.196 71.5697L63.3936 71.5633L63.5334 71.4235L69.7367 65.2202L75.9401 71.4235L76.0798 71.5633L76.2774 71.5697L77.8996 71.6222L78.4328 71.6395L78.4156 71.1063L78.363 69.4841L78.3566 69.2865L78.2168 69.1467L72.0135 62.9434L78.2168 56.7401L78.3566 56.6003L78.363 56.4027L78.4156 54.7805Z" fill="#FF2B2B" stroke="#FF2B2B"/>
</g>
<g clip-path="url(#clip1_9_431)">
<path d="M58.4156 72.7805L58.4328 72.2473L57.8996 72.2645L56.2774 72.3171L56.0798 72.3235L55.9401 72.4633L49.7367 78.6666L43.5334 72.4633L43.3936 72.3235L43.196 72.3171L41.5738 72.2646L41.0406 72.2473L41.0579 72.7805L41.1104 74.4027L41.1168 74.6003L41.2566 74.7401L47.4599 80.9434L41.2566 87.1467L41.1168 87.2865L41.1104 87.4841L41.0579 89.1063L41.0406 89.6395L41.5738 89.6222L43.196 89.5697L43.3936 89.5633L43.5334 89.4235L49.7367 83.2202L55.9401 89.4235L56.0798 89.5633L56.2774 89.5697L57.8996 89.6222L58.4328 89.6395L58.4156 89.1063L58.363 87.4841L58.3566 87.2865L58.2168 87.1467L52.0135 80.9434L58.2168 74.7401L58.3566 74.6003L58.363 74.4027L58.4156 72.7805Z" fill="#FFEA2F" stroke="#FFEA2F"/>
</g>
<path d="M18.4156 36.7805L18.4328 36.2473L17.8996 36.2645L16.2774 36.3171L16.0798 36.3235L15.9401 36.4633L9.73673 42.6666L3.5334 36.4633L3.39361 36.3235L3.19603 36.3171L1.57381 36.2646L1.04062 36.2473L1.05788 36.7805L1.11042 38.4027L1.11682 38.6003L1.25661 38.7401L7.45993 44.9434L1.25661 51.1467L1.11682 51.2865L1.11042 51.4841L1.05788 53.1063L1.04061 53.6395L1.5738 53.6222L3.19603 53.5697L3.39361 53.5633L3.5334 53.4235L9.73673 47.2202L15.9401 53.4235L16.0798 53.5633L16.2774 53.5697L17.8996 53.6222L18.4328 53.6395L18.4156 53.1063L18.363 51.4841L18.3566 51.2865L18.2168 51.1467L12.0135 44.9434L18.2168 38.7401L18.3566 38.6003L18.363 38.4027L18.4156 36.7805Z" fill="#2196F3" stroke="#2196F3"/>
<g clip-path="url(#clip2_9_431)">
<path d="M38.4156 54.7805L38.4328 54.2473L37.8996 54.2645L36.2774 54.3171L36.0798 54.3235L35.94 54.4633L29.7367 60.6666L23.5334 54.4633L23.3936 54.3235L23.196 54.3171L21.5738 54.2646L21.0406 54.2473L21.0579 54.7805L21.1104 56.4027L21.1168 56.6003L21.2566 56.7401L27.4599 62.9434L21.2566 69.1467L21.1168 69.2865L21.1104 69.4841L21.0579 71.1063L21.0406 71.6395L21.5738 71.6222L23.196 71.5697L23.3936 71.5633L23.5334 71.4235L29.7367 65.2202L35.9401 71.4235L36.0798 71.5633L36.2774 71.5697L37.8996 71.6222L38.4328 71.6395L38.4156 71.1063L38.363 69.4841L38.3566 69.2865L38.2168 69.1467L32.0135 62.9434L38.2168 56.7401L38.3566 56.6003L38.363 56.4027L38.4156 54.7805Z" fill="#43A363" stroke="#43A363"/>
</g>
<defs>
<clipPath id="clip0_9_431">
<rect width="17.8868" height="17.8868" fill="white" transform="translate(61 54)"/>
</clipPath>
<clipPath id="clip1_9_431">
<rect width="17.8868" height="17.8868" fill="white" transform="translate(41 72)"/>
</clipPath>
<clipPath id="clip2_9_431">
<rect width="17.8868" height="17.8868" fill="white" transform="translate(21 54)"/>
</clipPath>
</defs>
</svg>
